<svg width="137" height="22" viewBox="0 0 137 22" fill="none" xmlns="http://www.w3.org/2000/svg">
<path d="M11.3411 22C9.59404 21.9691 8.02317 21.6674 6.62848 21.0949C5.23378 20.538 4.03728 19.7567 3.03897 18.7511C2.05534 17.7454 1.29927 16.5928 0.770753 15.2932C0.256918 13.9782 0 12.5703 0 11.0696C0 9.55344 0.271599 8.13783 0.814796 6.82278C1.35799 5.49226 2.10673 4.33193 3.06099 3.34177C4.02994 2.35162 5.1457 1.57806 6.40826 1.0211C7.68551 0.448663 9.05085 0.162447 10.5043 0.162447C11.9577 0.162447 13.3157 0.448663 14.5782 1.0211C15.8555 1.57806 16.9713 2.35162 17.9255 3.34177C18.8945 4.33193 19.6505 5.49226 20.1937 6.82278C20.7369 8.13783 21.0085 9.55344 21.0085 11.0696C21.0085 11.8896 20.8837 12.6631 20.6342 13.3903C20.3993 14.1174 20.0176 14.7131 19.489 15.1772C18.9752 15.6259 18.2999 15.8502 17.4631 15.8502C16.6556 15.8502 15.9803 15.6181 15.4371 15.154C14.9086 14.6744 14.5415 14.0323 14.336 13.2278C13.969 14.0169 13.4551 14.6512 12.7945 15.1308C12.1339 15.6104 11.3558 15.8502 10.4602 15.8502C9.6234 15.8502 8.85999 15.6336 8.16998 15.2004C7.47998 14.7672 6.92944 14.1948 6.51837 13.4831C6.1073 12.756 5.90177 11.9515 5.90177 11.0696C5.90177 10.1878 6.1073 9.391 6.51837 8.67932C6.92944 7.95218 7.47998 7.37201 8.16998 6.93882C8.85999 6.49015 9.6234 6.26582 10.4602 6.26582C11.297 6.26582 12.0605 6.49015 12.7505 6.93882C13.4405 7.37201 13.991 7.95218 14.4021 8.67932C14.8131 9.391 15.0187 10.1878 15.0187 11.0696V12.0443C15.0187 12.6013 15.1288 13.0963 15.349 13.5295C15.5692 13.9473 15.8628 14.2799 16.2299 14.5274C16.5969 14.7595 16.9859 14.8755 17.397 14.8755C18.043 14.8755 18.5568 14.6821 18.9385 14.2954C19.3202 13.9086 19.5918 13.429 19.7533 12.8565C19.9295 12.2686 20.0176 11.673 20.0176 11.0696C20.0176 9.72363 19.768 8.45499 19.2688 7.26371C18.7844 6.05696 18.109 4.99719 17.2428 4.08439C16.3767 3.17159 15.3637 2.45218 14.2039 1.92616C13.0588 1.40014 11.8256 1.13713 10.5043 1.13713C9.18297 1.13713 7.94243 1.40014 6.78263 1.92616C5.63751 2.45218 4.63186 3.17159 3.76568 4.08439C2.8995 4.99719 2.21683 6.05696 1.71768 7.26371C1.23321 8.45499 0.990968 9.72363 0.990968 11.0696C0.990968 12.4156 1.22586 13.6842 1.69566 14.8755C2.16545 16.0668 2.84812 17.1111 3.74366 18.0084C4.6392 18.9212 5.7256 19.6406 7.00284 20.1667C8.28009 20.6927 9.72617 20.9634 11.3411 20.9789H11.7815V22H11.3411ZM10.4602 14.8755C11.1649 14.8755 11.7815 14.6976 12.31 14.3418C12.8532 13.9705 13.279 13.4986 13.5873 12.9262C13.8956 12.3537 14.0497 11.7349 14.0497 11.0696C14.0497 10.4198 13.8956 9.80872 13.5873 9.23629C13.279 8.64838 12.8532 8.17651 12.31 7.82067C11.7815 7.44937 11.1649 7.26371 10.4602 7.26371C9.75553 7.26371 9.13159 7.44937 8.58839 7.82067C8.05988 8.17651 7.64147 8.64838 7.33317 9.23629C7.03955 9.80872 6.89274 10.4198 6.89274 11.0696C6.89274 11.7349 7.03955 12.3537 7.33317 12.9262C7.64147 13.4986 8.05988 13.9705 8.58839 14.3418C9.13159 14.6976 9.75553 14.8755 10.4602 14.8755Z" fill="black"/>
<path d="M29.9054 16.9409V0.696202H36.4458C37.3707 0.696202 38.2075 0.912798 38.9562 1.34599C39.7197 1.77918 40.3216 2.38256 40.762 3.15612C41.2171 3.92968 41.4447 4.83474 41.4447 5.87131C41.4447 6.86146 41.2245 7.74332 40.784 8.51688C40.3583 9.29044 39.7637 9.90155 39.0003 10.3502C38.2369 10.7834 37.3487 11 36.3357 11H30.9844V16.9409H29.9054ZM30.9844 9.9789H36.2256C37.0037 9.9789 37.701 9.81646 38.3176 9.49156C38.9489 9.16667 39.4481 8.6948 39.8151 8.07595C40.1968 7.4571 40.3876 6.72222 40.3876 5.87131C40.3876 4.98945 40.1968 4.2391 39.8151 3.62025C39.4481 3.00141 38.9489 2.52954 38.3176 2.20464C37.701 1.87975 37.0257 1.7173 36.2916 1.7173H30.9844V9.9789Z" fill="black"/>
<path d="M48.8802 17.2426C47.7351 17.2426 46.7515 16.9719 45.9293 16.4304C45.1072 15.8734 44.4759 15.1231 44.0355 14.1793C43.6097 13.2356 43.3968 12.1758 43.3968 11C43.3968 9.83966 43.6244 8.79536 44.0795 7.86709C44.5493 6.92335 45.2173 6.18073 46.0835 5.63924C46.9496 5.09775 47.9847 4.827 49.1885 4.827C50.3189 4.827 51.3026 5.09775 52.1394 5.63924C52.9762 6.16526 53.6222 6.88467 54.0773 7.79747C54.5471 8.6948 54.782 9.71589 54.782 10.8608V16.9409H53.747V14.0865H53.6809C53.4754 14.5661 53.1524 15.0534 52.7119 15.5485C52.2862 16.0281 51.7503 16.4304 51.1044 16.7553C50.4731 17.0802 49.7317 17.2426 48.8802 17.2426ZM49.0564 16.2911C49.9519 16.2911 50.752 16.0668 51.4567 15.6181C52.1614 15.154 52.7119 14.5197 53.1083 13.7152C53.5194 12.8952 53.7249 11.9747 53.7249 10.9536C53.7249 9.96343 53.5341 9.08158 53.1524 8.30802C52.7854 7.51899 52.2568 6.90014 51.5668 6.45148C50.8768 6.00281 50.0694 5.77848 49.1445 5.77848C48.1755 5.77848 47.3387 6.01055 46.634 6.47468C45.944 6.93882 45.4081 7.57314 45.0264 8.37764C44.6594 9.18214 44.4759 10.0949 44.4759 11.116C44.4759 12.0598 44.6521 12.9262 45.0044 13.7152C45.3568 14.5042 45.8779 15.1308 46.5679 15.5949C47.258 16.0591 48.0874 16.2911 49.0564 16.2911Z" fill="black"/>
<path d="M63.4215 17.2426C62.6874 17.2426 61.9827 17.1111 61.3074 16.8481C60.6321 16.5696 60.0301 16.1674 59.5016 15.6413C58.9731 15.1153 58.5547 14.4655 58.2464 13.692C57.9381 12.903 57.784 11.9979 57.784 10.9768C57.784 9.67721 58.0409 8.57103 58.5547 7.65823C59.0685 6.74543 59.7439 6.04923 60.5807 5.56962C61.4175 5.07454 62.3277 4.827 63.3114 4.827C63.972 4.827 64.6033 4.95851 65.2052 5.22152C65.8218 5.48453 66.365 5.8481 66.8348 6.31224C67.3046 6.7609 67.6643 7.27918 67.9138 7.86709H67.9799V0H69.0149V11.116C69.0149 12.4466 68.7507 13.5682 68.2222 14.481C67.6936 15.3938 67.0036 16.0823 66.1521 16.5464C65.3153 17.0105 64.4051 17.2426 63.4215 17.2426ZM63.4435 16.2679C64.2216 16.2679 64.9556 16.0745 65.6456 15.6878C66.3356 15.2855 66.8935 14.6976 67.3193 13.9241C67.745 13.1505 67.9579 12.199 67.9579 11.0696C67.9579 9.92475 67.7377 8.96554 67.2972 8.19198C66.8715 7.40295 66.3136 6.80731 65.6236 6.40506C64.9336 6.00281 64.1922 5.80169 63.3994 5.80169C62.6067 5.80169 61.8653 6.01055 61.1753 6.42827C60.4853 6.84599 59.92 7.44937 59.4796 8.2384C59.0539 9.01195 58.841 9.94022 58.841 11.0232C58.841 12.1526 59.0612 13.1118 59.5016 13.9008C59.9421 14.6744 60.5073 15.2623 61.1973 15.6646C61.902 16.0668 62.6507 16.2679 63.4435 16.2679Z" fill="black"/>
<path d="M78.2757 16.9409C77.1012 16.9409 76.0368 16.7166 75.0825 16.2679C74.1283 15.8038 73.3722 15.1308 72.8143 14.2489C72.2564 13.3671 71.9775 12.2918 71.9775 11.0232C71.9775 9.92475 72.1904 8.90366 72.6161 7.95992C73.0419 7.01617 73.6438 6.25809 74.4219 5.68565C75.2147 5.11322 76.1469 4.827 77.2186 4.827C78.2757 4.827 79.1786 5.07454 79.9273 5.56962C80.6907 6.0647 81.2706 6.73769 81.667 7.58861C82.078 8.42405 82.2836 9.36779 82.2836 10.4198C82.2836 10.59 82.2762 10.7602 82.2616 10.9304C82.2616 11.1006 82.2469 11.2707 82.2175 11.4409H73.0786C73.1079 12.4156 73.3575 13.2433 73.8273 13.9241C74.2971 14.6048 74.9137 15.1153 75.6771 15.4557C76.4405 15.7961 77.2627 15.9662 78.1435 15.9662H80.8962V16.9409H78.2757ZM73.0786 10.5823H81.2045C81.2192 10.2729 81.1972 9.90928 81.1385 9.49156C81.0944 9.07384 80.9917 8.65612 80.8302 8.2384C80.6687 7.8052 80.4338 7.40295 80.1255 7.03165C79.8318 6.66034 79.4428 6.35865 78.9583 6.12658C78.4739 5.89451 77.8793 5.77848 77.1746 5.77848C76.5433 5.77848 75.9707 5.91772 75.4569 6.1962C74.9578 6.47468 74.532 6.85373 74.1797 7.33333C73.8273 7.79747 73.5557 8.31575 73.3649 8.88819C73.174 9.44515 73.0786 10.0098 73.0786 10.5823Z" fill="black"/>
<path d="M85.2377 16.9409V8.47046C85.2377 7.41842 85.5167 6.59845 86.0745 6.01055C86.6471 5.40717 87.4325 5.10548 88.4309 5.10548H89.9724V6.08017H88.6511C87.873 6.08017 87.2784 6.3045 86.8673 6.75316C86.4709 7.20183 86.2727 7.84388 86.2727 8.67932V16.9409H85.2377Z" fill="black"/>
<path d="M97.6269 17.2426C96.658 17.2426 95.7477 17.0105 94.8962 16.5464C94.0447 16.0823 93.3547 15.3938 92.8262 14.481C92.2977 13.5682 92.0334 12.4466 92.0334 11.116V0H93.0684V7.86709H93.1345C93.3988 7.27918 93.7585 6.7609 94.2136 6.31224C94.6834 5.8481 95.2192 5.48453 95.8211 5.22152C96.4377 4.95851 97.0764 4.827 97.737 4.827C98.7206 4.827 99.6309 5.07454 100.468 5.56962C101.304 6.04923 101.98 6.74543 102.494 7.65823C103.007 8.57103 103.264 9.67721 103.264 10.9768C103.264 11.9979 103.11 12.903 102.802 13.692C102.494 14.4655 102.075 15.1153 101.547 15.6413C101.018 16.1674 100.416 16.5696 99.741 16.8481C99.0656 17.1111 98.361 17.2426 97.6269 17.2426ZM97.6049 16.2679C98.3977 16.2679 99.1391 16.0668 99.8291 15.6646C100.534 15.2623 101.106 14.6744 101.547 13.9008C101.987 13.1118 102.207 12.1526 102.207 11.0232C102.207 9.94022 101.987 9.01195 101.547 8.2384C101.121 7.44937 100.563 6.84599 99.8731 6.42827C99.1831 6.01055 98.4417 5.80169 97.6489 5.80169C96.8708 5.80169 96.1294 6.00281 95.4248 6.40506C94.7347 6.80731 94.1695 7.40295 93.7291 8.19198C93.3033 8.96554 93.0905 9.92475 93.0905 11.0696C93.0905 12.199 93.3033 13.1505 93.7291 13.9241C94.1548 14.6976 94.7127 15.2855 95.4027 15.6878C96.0927 16.0745 96.8268 16.2679 97.6049 16.2679Z" fill="black"/>
<path d="M111.424 17.2426C110.308 17.2426 109.317 16.9719 108.451 16.4304C107.585 15.8734 106.902 15.1231 106.403 14.1793C105.919 13.2356 105.676 12.1835 105.676 11.0232C105.676 9.86287 105.919 8.81083 106.403 7.86709C106.902 6.92335 107.585 6.18073 108.451 5.63924C109.317 5.08228 110.308 4.8038 111.424 4.8038C112.555 4.8038 113.553 5.08228 114.419 5.63924C115.285 6.18073 115.961 6.92335 116.445 7.86709C116.944 8.79536 117.194 9.8474 117.194 11.0232C117.194 12.1835 116.944 13.2356 116.445 14.1793C115.961 15.1231 115.285 15.8734 114.419 16.4304C113.553 16.9719 112.555 17.2426 111.424 17.2426ZM111.424 16.2679C112.349 16.2679 113.164 16.0359 113.868 15.5717C114.573 15.1076 115.124 14.481 115.52 13.692C115.931 12.903 116.137 12.0134 116.137 11.0232C116.137 10.0331 115.931 9.14346 115.52 8.35443C115.124 7.5654 114.573 6.93882 113.868 6.47468C113.164 6.01055 112.349 5.77848 111.424 5.77848C110.514 5.77848 109.699 6.01055 108.98 6.47468C108.275 6.93882 107.724 7.5654 107.328 8.35443C106.932 9.14346 106.733 10.0331 106.733 11.0232C106.733 12.0134 106.932 12.903 107.328 13.692C107.724 14.481 108.275 15.1076 108.98 15.5717C109.699 16.0359 110.514 16.2679 111.424 16.2679Z" fill="black"/>
<path d="M120.162 16.9409V8.47046C120.162 7.41842 120.441 6.59845 120.999 6.01055C121.572 5.40717 122.357 5.10548 123.356 5.10548H124.897V6.08017H123.576C122.798 6.08017 122.203 6.3045 121.792 6.75316C121.396 7.20183 121.197 7.84388 121.197 8.67932V16.9409H120.162Z" fill="black"/>
<path d="M126.98 16.9409V10.0253C126.98 8.91139 127.215 7.96765 127.685 7.19409C128.155 6.42053 128.771 5.83263 129.535 5.43038C130.298 5.01266 131.113 4.8038 131.979 4.8038C132.875 4.8038 133.697 5.01266 134.446 5.43038C135.209 5.83263 135.826 6.42053 136.295 7.19409C136.765 7.96765 137 8.91139 137 10.0253V16.9409H135.943V10.0949C135.943 9.16667 135.752 8.38537 135.37 7.75105C135.003 7.10127 134.512 6.61392 133.895 6.28903C133.293 5.94866 132.654 5.77848 131.979 5.77848C131.304 5.77848 130.665 5.94093 130.063 6.26582C129.461 6.59072 128.969 7.07806 128.588 7.72785C128.206 8.36217 128.015 9.1512 128.015 10.0949V16.9409H126.98Z" fill="black"/>
</svg>
