<svg width="21" height="35" viewBox="0 0 21 35" fill="none" xmlns="http://www.w3.org/2000/svg">
<path fill-rule="evenodd" clip-rule="evenodd" d="M0.880393 16.1952C1.43169 17.9723 8.08483 33.6721 9.38789 34.5139C10.3965 35.162 10.691 35.162 11.5179 34.5139C12.7583 33.5385 19.3989 18.2997 19.9314 16.1885C20.3825 14.3914 20.4827 12.7813 20.4827 10.7504C20.4827 8.71943 20.0504 6.89558 19.1859 5.2922C18.3214 3.68213 17.1248 2.4061 15.6088 1.45743C14.0927 0.508759 12.3511 0.0344238 10.3965 0.0344238C8.44192 0.0344238 6.71285 0.51544 5.20305 1.46411C3.69325 2.41278 2.50296 3.70217 1.62589 5.31892C0.748833 6.93567 0.310303 8.75284 0.310303 10.7571C0.310303 12.7613 0.329097 14.4181 0.880393 16.1952ZM10.3966 18.8621C14.4816 18.8621 17.7932 15.2495 17.7932 10.7931C17.7932 6.33674 14.4816 2.72414 10.3966 2.72414C6.31162 2.72414 3.00007 6.33674 3.00007 10.7931C3.00007 15.2495 6.31162 18.8621 10.3966 18.8621Z" fill="#E52A84"/>
</svg>
