<svg width="29" height="25" viewBox="0 0 29 25" fill="none" xmlns="http://www.w3.org/2000/svg">
<path d="M15.2031 1.28125L27.5781 11.7812C28.0469 12.2031 28.0938 12.9062 27.7188 13.375C27.2969 13.8438 26.5938 13.8906 26.125 13.5156L25 12.5312V21.25C25 23.3594 23.3125 25 21.25 25H7.75C5.64062 25 4 23.3594 4 21.25V12.5312L2.82812 13.5156C2.35938 13.8906 1.65625 13.8438 1.23438 13.375C0.859375 12.9062 0.90625 12.2031 1.375 11.7812L13.75 1.28125C14.1719 0.953125 14.7812 0.953125 15.2031 1.28125ZM6.25 21.25C6.25 22.0938 6.90625 22.75 7.75 22.75H10V15.625C10 14.5938 10.7969 13.75 11.875 13.75H17.125C18.1562 13.75 19 14.5938 19 15.625V22.75H21.25C22.0469 22.75 22.75 22.0938 22.75 21.25V10.6094L14.5 3.625L6.25 10.6094V21.25ZM12.25 22.75H16.75V16H12.25V22.75Z" fill="#1E1E1E"/>
</svg>
