<svg width="136" height="34" viewBox="0 0 136 34" fill="none" xmlns="http://www.w3.org/2000/svg">
<g clip-path="url(#clip0_313_42)">
<path d="M53.6997 22.8521V20.3305H61.4383C61.9467 20.3305 62.386 20.2167 62.7563 19.9956C63.1266 19.7744 63.409 19.4773 63.5973 19.1171C63.7856 18.7569 63.886 18.3714 63.886 17.9669C63.886 17.5814 63.8044 17.2275 63.635 16.8989C63.4655 16.5703 63.2082 16.3049 62.8567 16.1026C62.5052 15.9004 62.091 15.7993 61.6015 15.7993H58.3315C57.296 15.7993 56.3922 15.6223 55.6202 15.2747C54.8482 14.9208 54.2457 14.4089 53.8126 13.7264C53.3796 13.0439 53.1599 12.216 53.1599 11.2365C53.1599 10.4086 53.3608 9.63757 53.7624 8.93608C54.1641 8.23459 54.7227 7.66582 55.4445 7.22976C56.1662 6.7937 56.9884 6.57251 57.9173 6.57251H65.3735V9.09407H58.206C57.5533 9.09407 57.0324 9.2963 56.6495 9.70076C56.2667 10.1052 56.0784 10.5855 56.0784 11.1417C56.0784 11.6978 56.2729 12.1402 56.6683 12.532C57.0575 12.9238 57.6161 13.126 58.3315 13.126H61.4383C62.5994 13.126 63.5785 13.3093 64.3756 13.6822C65.1664 14.055 65.7689 14.5922 66.1831 15.2937C66.5974 15.9952 66.8045 16.861 66.8045 17.8785C66.8045 18.7506 66.5911 19.5658 66.1706 20.3242C65.7501 21.0825 65.1601 21.6956 64.407 22.1632C63.6538 22.6309 62.7814 22.8647 61.7898 22.8647H53.6997V22.8521Z" fill="#1D1D1B"/>
<path d="M78.1957 6.18066C79.4195 6.18066 80.543 6.37658 81.5597 6.7684C82.5765 7.16022 83.4552 7.74163 84.1958 8.50631C84.9364 9.271 85.5138 10.1937 85.9217 11.268C86.336 12.3424 86.5431 13.5494 86.5431 14.8955C86.5431 16.5766 86.1979 18.0491 85.5138 19.3067C84.8234 20.5643 83.8882 21.5312 82.7083 22.2138C81.5221 22.8963 80.179 23.2375 78.6789 23.2375C77.8568 23.2375 77.0659 23.0985 76.3128 22.8204C75.5596 22.5424 74.8944 22.1569 74.317 21.6576C73.7333 21.1584 73.2625 20.5896 72.9048 19.9513H72.842V27.358H69.9236V14.8071C69.9236 12.9743 70.2876 11.4197 71.0156 10.1431C71.7437 8.86654 72.7353 7.88698 73.9843 7.20446C75.2333 6.52193 76.6392 6.18066 78.202 6.18066H78.1957ZM78.1957 8.70223C77.2229 8.70223 76.3316 8.94869 75.5157 9.43531C74.6998 9.92825 74.0534 10.6171 73.5826 11.5145C73.1056 12.4119 72.8671 13.461 72.8671 14.6743C72.8671 15.8877 73.1056 16.981 73.5826 17.8848C74.0596 18.7885 74.7061 19.49 75.5157 19.9766C76.3316 20.4695 77.2354 20.7097 78.2271 20.7097C79.2187 20.7097 80.1539 20.4569 80.9572 19.945C81.7606 19.4331 82.4008 18.7316 82.8778 17.8342C83.3548 16.9368 83.5933 15.894 83.5933 14.7059C83.5933 13.5178 83.3485 12.4056 82.8652 11.5145C82.3757 10.6171 81.7292 9.92825 80.9133 9.43531C80.0974 8.94869 79.1936 8.70223 78.202 8.70223H78.1957Z" fill="#1D1D1B"/>
<path d="M108.893 9.08768V6.56611H120.152V9.08768H108.893ZM116.286 22.852C114.849 22.852 113.719 22.4349 112.91 21.607C112.094 20.7791 111.686 19.6479 111.686 18.2196V2.47095H114.604V18.0301C114.604 18.7315 114.799 19.294 115.194 19.7048C115.583 20.1219 116.129 20.3304 116.826 20.3304H120.096V22.852H116.286Z" fill="#1D1D1B"/>
<path d="M97.6771 33.6145C96.5788 32.9446 90.9678 20.4506 90.5096 19.0349C90.0515 17.6193 90.0264 16.3048 90.0264 14.7059C90.0264 13.1071 90.3967 11.6662 91.1373 10.3769C91.8779 9.08773 92.8821 8.06394 94.1499 7.31189C95.4177 6.55985 96.88 6.18066 98.5307 6.18066C100.181 6.18066 101.644 6.55985 102.924 7.31189C104.204 8.07026 105.209 9.08141 105.937 10.3643C106.665 11.6409 107.029 13.0881 107.029 14.7059C107.029 16.3238 106.947 17.6004 106.564 19.0349C106.112 20.7097 100.52 32.8435 99.4721 33.6145C98.7755 34.1327 98.5307 34.1327 97.6771 33.6145ZM98.5244 20.716C99.6479 20.716 100.621 20.4506 101.443 19.9197C102.265 19.3888 102.912 18.6684 103.376 17.7647C103.84 16.861 104.073 15.8435 104.073 14.7123C104.073 13.581 103.84 12.5699 103.376 11.6598C102.912 10.7561 102.265 10.0357 101.443 9.50483C100.621 8.97397 99.6479 8.70854 98.5244 8.70854C97.401 8.70854 96.4595 8.97397 95.6248 9.50483C94.79 10.0357 94.1373 10.7561 93.6729 11.6598C93.2084 12.5636 92.9762 13.581 92.9762 14.7123C92.9762 15.8435 93.2084 16.861 93.6729 17.7647C94.1373 18.6684 94.79 19.3888 95.6248 19.9197C96.4595 20.4506 97.4261 20.716 98.5244 20.716Z" fill="#E52A84"/>
<path d="M8.72398 22.8393C7.0545 22.8393 5.56075 22.4791 4.24902 21.7523C2.93728 21.0319 1.9017 20.0524 1.14228 18.8326C0.382851 17.6066 0 16.2289 0 14.6996C0 13.1702 0.382851 11.7862 1.14228 10.5602C1.9017 9.33414 2.93728 8.3609 4.24902 7.64046C5.56075 6.91369 7.04822 6.55347 8.72398 6.55347H10.6257V9.07503H8.62984C7.55032 9.07503 6.58378 9.32782 5.73021 9.82707C4.87664 10.3263 4.19881 11.0025 3.69671 11.8557C3.20089 12.7089 2.94984 13.6568 2.94984 14.6996C2.94984 15.7423 3.20089 16.6903 3.69671 17.5434C4.19253 18.3966 4.87037 19.0728 5.73021 19.5721C6.59006 20.0713 7.5566 20.3241 8.62984 20.3241H10.6257V22.8457H8.72398V22.8393Z" fill="#1D1D1B"/>
<path d="M15.4522 3.96245C14.925 3.96245 14.4605 3.76654 14.0714 3.37472C13.6823 2.9829 13.4814 2.51524 13.4814 1.98439C13.4814 1.45353 13.676 0.992193 14.0714 0.594052C14.4668 0.195911 14.925 0 15.4522 0C15.9794 0 16.4438 0.195911 16.833 0.594052C17.2221 0.985874 17.4229 1.45353 17.4229 1.98439C17.4229 2.51524 17.2284 2.9829 16.833 3.37472C16.4438 3.76654 15.9794 3.96245 15.4522 3.96245ZM13.9584 22.8394V6.54721H16.9083V22.8394H13.9584Z" fill="#1D1D1B"/>
<path d="M19.6384 9.07498V6.55342H30.898V9.07498H19.6384ZM27.0256 22.8393C25.5883 22.8393 24.4586 22.4222 23.6489 21.5943C22.833 20.7664 22.4251 19.6352 22.4251 18.2069V2.45825H25.3435V18.0174C25.3435 18.7188 25.5381 19.2813 25.9335 19.6921C26.3226 20.1092 26.8687 20.3177 27.5653 20.3177H30.8353V22.8393H27.0256Z" fill="#1D1D1B"/>
<path d="M40.5446 29.3233V23.0921C39.3584 22.9215 38.3103 22.5233 37.3877 21.8914C36.4651 21.2657 35.7433 20.4441 35.2161 19.433C34.6889 18.4218 34.4253 17.2653 34.4253 15.9698V6.54712H37.3751V15.9382C37.3751 16.9178 37.5885 17.7646 38.009 18.4787C38.4295 19.1928 39.0007 19.7427 39.7036 20.1218C40.4128 20.5073 41.166 20.6969 41.9693 20.6969C42.7727 20.6969 43.5635 20.5073 44.2727 20.1218C44.9819 19.7363 45.5531 19.1928 45.9861 18.4787C46.4192 17.7646 46.6389 16.9178 46.6389 15.9382V6.54712H49.5573V15.9698C49.5573 17.2717 49.3 18.4218 48.7791 19.4204C48.2581 20.4189 47.5426 21.2341 46.62 21.8661C45.6974 22.498 44.6493 22.9025 43.4631 23.0984V29.3296H40.5446V29.3233Z" fill="#1D1D1B"/>
<path d="M122.902 22.8521V20.3305H130.64C131.149 20.3305 131.588 20.2167 131.958 19.9956C132.328 19.7744 132.611 19.4773 132.799 19.1171C132.987 18.7569 133.088 18.3714 133.088 17.9669C133.088 17.5814 133.006 17.2275 132.837 16.8989C132.667 16.5703 132.41 16.3049 132.059 16.1026C131.707 15.9004 131.293 15.7993 130.803 15.7993H127.533C126.498 15.7993 125.594 15.6223 124.822 15.2747C124.05 14.9208 123.448 14.4089 123.015 13.7264C122.581 13.0439 122.362 12.216 122.362 11.2365C122.362 10.4086 122.563 9.63757 122.964 8.93608C123.366 8.23459 123.925 7.66582 124.646 7.22976C125.368 6.7937 126.19 6.57251 127.119 6.57251H134.575V9.09407H127.408C126.755 9.09407 126.234 9.2963 125.851 9.70076C125.469 10.1052 125.28 10.5855 125.28 11.1417C125.28 11.6978 125.475 12.1402 125.87 12.532C126.259 12.9238 126.818 13.126 127.533 13.126H130.64C131.801 13.126 132.78 13.3093 133.577 13.6822C134.368 14.055 134.971 14.5922 135.385 15.2937C135.799 15.9952 136.006 16.861 136.006 17.8785C136.006 18.7506 135.793 19.5658 135.372 20.3242C134.952 21.0825 134.362 21.6956 133.609 22.1632C132.856 22.6309 131.983 22.8647 130.992 22.8647H122.902V22.8521Z" fill="#1D1D1B"/>
</g>
<defs>
<clipPath id="clip0_313_42">
<rect width="136" height="34" fill="white"/>
</clipPath>
</defs>
</svg>
