<svg width="18" height="27" viewBox="0 0 18 27" fill="none" xmlns="http://www.w3.org/2000/svg">
<path d="M9 2.6875C9 1.82422 9.45703 1.0625 10.2188 0.605469C10.9297 0.148438 11.8945 0.148438 12.6562 0.605469C13.3672 1.0625 13.875 1.82422 13.875 2.6875C13.875 3.60156 13.3672 4.36328 12.6562 4.82031C11.8945 5.27734 10.9297 5.27734 10.2188 4.82031C9.45703 4.36328 9 3.60156 9 2.6875ZM9.55859 9.23828L8.03516 13.8086C7.98438 13.9609 8.03516 14.1641 8.1875 14.2656L9 14.9258L10.6758 9.64453C10.6758 9.64453 10.6758 9.64453 10.6758 9.59375C10.3203 9.44141 9.96484 9.28906 9.55859 9.23828ZM12.5039 11.9297L11.0312 16.6016L13.5703 18.6328C13.9258 18.9375 14.1797 19.3438 14.2812 19.75L15.4492 24.7773C15.6016 25.4375 15.1953 26.0977 14.5352 26.25C13.875 26.4023 13.2148 25.9961 13.0625 25.3359L11.9453 20.4609L6.66406 16.1445C5.75 15.3828 5.34375 14.1641 5.75 13.0469L6.91797 9.59375C5.64844 10.0508 4.63281 11.0156 4.07422 12.2852L3.56641 13.3516C3.3125 13.9609 2.60156 14.2656 1.99219 13.9609C1.38281 13.707 1.07812 12.9961 1.38281 12.3867L1.83984 11.2695C2.70312 9.33984 4.37891 7.81641 6.41016 7.15625C7.17188 6.90234 7.98438 6.75 8.79688 6.75H9.05078C11.6914 6.75 14.0781 8.52734 14.7891 11.1172L15.3477 13.0469L16.7695 14.418C17.2266 14.9258 17.2266 15.6875 16.7695 16.1445C16.2617 16.6523 15.5 16.6523 15.043 16.1445L13.5703 14.6719C13.3164 14.4688 13.1133 14.1641 13.0117 13.8086L12.5039 11.9297ZM4.68359 20.7148L5.90234 17.668L7.88281 19.2422L6.91797 21.6797C6.81641 21.9336 6.66406 22.1875 6.46094 22.3906L2.95703 25.8945C2.44922 26.4023 1.6875 26.4023 1.23047 25.8945C0.722656 25.4375 0.722656 24.6758 1.23047 24.2188L4.68359 20.7148Z" fill="#1E1E1E"/>
</svg>
